<svg version="1.1" id="Layer_1" xmlns="http://www.w3.org/2000/svg" xmlns:xlink="http://www.w3.org/1999/xlink" x="0px" y="0px"
	 width="100%" viewBox="0 0 500 500" enable-background="new 0 0 500 500" xml:space="preserve">
<path fill="#010101" opacity="1.000000" stroke="none" 
	d="
M264.000000,501.000000 
	C176.000015,501.000000 88.500038,501.000000 1.000047,501.000000 
	C1.000031,334.333405 1.000031,167.666794 1.000016,1.000136 
	C167.666565,1.000091 334.333130,1.000091 500.999756,1.000046 
	C500.999847,167.666519 500.999847,334.333038 500.999939,500.999786 
	C422.166656,501.000000 343.333344,501.000000 264.000000,501.000000 
M386.604645,129.620102 
	C387.129761,129.727615 387.654907,129.835144 388.264343,130.616821 
	C397.872742,140.131302 407.589172,149.541214 416.990753,159.255859 
	C418.698944,161.020996 419.993469,164.030502 419.999451,166.469193 
	C420.063354,192.444916 419.903198,218.422409 419.549011,244.395920 
	C419.517059,246.738892 418.249084,249.575745 416.618256,251.294128 
	C410.830627,257.392365 404.544159,263.013062 398.615295,268.982178 
	C383.940369,283.756805 369.383118,298.648346 354.693695,313.408417 
	C353.501343,314.606506 351.684875,315.837799 350.116547,315.894470 
	C343.214508,316.143677 336.293671,315.841278 329.387512,316.028595 
	C327.528107,316.079041 325.203735,316.629486 323.931763,317.835358 
	C315.576050,325.756805 307.401276,333.871948 299.264221,342.020508 
	C292.414154,348.880280 285.695099,355.870941 278.917999,362.803650 
	C279.219757,363.300842 279.521515,363.798004 279.823273,364.295166 
	C281.736694,363.305725 284.027710,362.703186 285.502441,361.264130 
	C295.272064,351.730957 305.499939,342.559174 314.337189,332.209686 
	C322.907013,322.173340 332.462738,316.758087 345.746124,319.317780 
	C352.292572,320.579224 357.101654,317.936615 361.039856,312.908752 
	C362.633759,310.873749 364.560547,309.092712 366.390533,307.250427 
	C384.508423,289.010498 402.679443,270.822906 420.688416,252.476196 
	C422.207489,250.928619 423.383392,248.371964 423.488922,246.223679 
	C423.986053,236.105988 424.053833,225.967178 424.275574,215.835938 
	C424.341858,212.807617 424.179169,209.609421 429.449036,209.984665 
	C422.556091,205.272629 424.089142,198.668289 424.176025,192.528427 
	C424.310760,183.010391 424.693359,173.496017 424.866577,163.978195 
	C424.888611,162.768188 424.675262,161.154877 423.909851,160.389664 
	C413.142426,149.625137 402.260345,138.975327 391.093140,127.732948 
	C388.418030,125.056519 385.472260,122.596306 383.125000,119.657982 
	C378.451508,113.807625 372.374573,113.540253 365.800110,114.572571 
	C364.656982,114.752068 363.502319,114.978447 362.352844,114.979187 
	C335.888184,114.996185 309.423553,114.984245 282.958893,114.979202 
	C272.498138,114.977203 262.037384,114.978874 251.267944,114.978874 
	C251.179489,116.937988 250.993607,118.732544 251.035522,120.521774 
	C251.232697,128.937317 251.687393,137.351135 251.698273,145.766037 
	C251.770920,201.939133 251.786575,258.112366 251.741196,314.285461 
	C251.730453,327.584595 251.416595,340.883484 251.042999,354.686646 
	C251.723343,354.525665 252.403702,354.364716 253.655609,353.830719 
	C260.285889,347.050323 267.098663,340.433990 273.434326,333.388641 
	C275.313110,331.299469 276.746155,328.033936 276.842651,325.253998 
	C277.226654,314.189240 277.022675,303.103363 276.992767,292.025421 
	C276.981018,287.669983 276.807495,283.315063 276.790314,278.959595 
	C276.756470,270.368317 276.780334,261.776825 276.780334,252.983337 
	C298.346832,252.983337 319.650604,252.818665 340.950531,253.033356 
	C359.324646,253.218552 375.326996,247.689575 388.595642,234.745422 
	C406.402435,217.374130 412.350220,195.707031 408.402069,172.046082 
	C405.373047,153.893265 394.853546,139.171692 379.622131,128.316437 
	C375.856049,125.632370 371.909882,123.201035 367.809784,120.497444 
	C375.569794,118.035789 384.582153,123.033485 385.864166,130.046066 
	C385.950043,130.139984 386.035919,130.233917 386.604645,129.620102 
M209.778046,396.945007 
	C212.530670,397.565277 215.283295,398.185547 218.352005,399.111298 
	C218.776825,399.038422 219.201660,398.965576 219.626480,398.892700 
	C219.388092,398.399567 219.149719,397.906433 218.997711,396.637573 
	C218.271790,394.814484 217.692169,392.911469 216.758240,391.202026 
	C216.291351,390.347412 215.268753,389.634125 214.335815,389.232635 
	C212.754745,388.552246 210.587418,388.649811 209.467102,387.581116 
	C203.709854,382.089050 197.853622,376.630585 192.712143,370.582214 
	C187.090897,363.969421 180.871292,359.966064 171.849747,361.696686 
	C169.760223,362.097504 167.440460,362.132294 165.383469,361.656921 
	C162.824478,361.065491 159.805191,360.402557 158.057175,358.681335 
	C138.472427,339.397003 119.165382,319.830719 99.586250,300.540588 
	C96.551270,297.550415 95.134018,294.829987 95.207054,290.382080 
	C95.482651,273.598511 95.155418,256.805084 95.276115,239.518509 
	C95.375404,238.996033 95.474693,238.473557 96.160484,237.531296 
	C100.273331,233.749130 104.465446,230.047241 108.438774,226.123795 
	C109.340591,225.233276 109.848213,223.590393 109.906670,222.265991 
	C110.073807,218.480042 109.896408,214.679810 109.890472,210.885147 
	C109.862526,193.038315 109.839882,175.191498 109.844841,157.344666 
	C109.845108,156.372696 109.753517,155.046387 110.310020,154.483856 
	C115.700752,149.034668 121.221031,143.713623 127.754471,137.329941 
	C127.754471,193.540649 127.754471,247.997421 127.754471,303.165100 
	C123.629776,299.369904 120.141823,295.974365 116.445633,292.823029 
	C113.838806,290.600464 112.835098,288.105042 112.905998,284.618164 
	C113.132912,273.459229 113.072472,262.292145 112.949501,251.130096 
	C112.916687,248.151459 113.540482,244.534515 109.060738,243.223465 
	C109.060738,258.565491 108.995300,273.557800 109.159615,288.547546 
	C109.176476,290.085419 110.229378,291.949829 111.374687,293.083923 
	C120.543724,302.163177 129.822479,311.132538 139.128357,320.072327 
	C143.371826,324.148895 147.752335,328.082794 152.961914,332.906616 
	C152.961914,294.356476 152.961914,257.278351 152.961914,219.631805 
	C172.501877,219.631805 191.710876,219.631805 211.305054,219.631805 
	C211.514099,222.543106 211.957260,225.662262 211.925262,228.776505 
	C211.749496,245.880310 211.348541,262.982208 211.239288,280.086151 
	C211.149979,294.064453 211.305008,308.045410 211.487839,322.023407 
	C211.523071,324.717072 211.230652,328.244507 212.727463,329.948303 
	C219.838974,338.043365 227.517151,345.640625 235.868225,354.324615 
	C236.285995,350.984009 236.727615,349.083649 236.730804,347.182587 
	C236.779083,318.419556 236.773743,289.656372 236.773132,260.893250 
	C236.772217,217.072540 236.699127,173.251587 236.861816,129.431503 
	C236.878326,124.986313 235.680923,123.653130 231.264984,123.931839 
	C225.008041,124.326752 218.707596,124.032021 212.030914,124.032021 
	C212.030914,147.529739 212.030914,171.285355 212.030914,195.386749 
	C192.218155,195.386749 172.800095,195.386749 152.747131,195.386749 
	C152.747131,168.562485 152.747131,141.997208 152.747131,115.594994 
	C148.048065,114.048035 144.987610,115.432304 142.003586,118.386192 
	C131.171692,129.108643 120.062614,139.552277 109.301773,150.344040 
	C107.674927,151.975540 106.573715,154.884262 106.534981,157.223801 
	C106.287163,172.192368 106.403549,187.166962 106.401726,202.139587 
	C106.400940,208.587769 108.130928,215.722595 105.917358,221.290207 
	C103.722420,226.810944 97.480331,230.684296 93.190514,235.440048 
	C92.234306,236.500107 91.551872,238.222031 91.533676,239.649307 
	C91.344978,254.448975 91.013359,269.258514 91.390915,284.048187 
	C91.550255,290.289978 89.317284,297.296051 95.882637,302.389740 
	C100.026512,305.604736 103.382103,309.830597 107.122307,313.572052 
	C121.846909,328.301544 136.875549,342.743225 151.169724,357.878784 
	C156.733597,363.770172 162.327164,366.955811 170.424469,365.713715 
	C173.517105,365.239380 176.755783,365.478149 179.903488,365.715546 
	C181.218582,365.814758 182.774368,366.448181 183.703064,367.363800 
	C192.156830,375.698547 200.508636,384.137146 208.829193,392.605377 
	C209.206421,392.989319 208.999878,393.946808 208.566025,394.855377 
	C208.182495,395.336426 207.798965,395.817505 207.415436,396.298584 
	C207.953842,396.446411 208.492264,396.594238 209.778046,396.945007 
M293.263885,333.665100 
	C294.408447,330.914215 296.189301,328.243958 296.550537,325.393799 
	C297.111633,320.966370 296.709595,316.416473 296.710205,311.918488 
	C296.711945,299.137146 296.710815,286.355835 296.710815,273.090149 
	C300.113556,273.090149 303.068207,273.116089 306.022308,273.085785 
	C322.231720,272.919556 338.441406,272.771912 354.649841,272.535431 
	C357.698303,272.490936 357.695801,272.318604 357.270599,269.294281 
	C335.828766,269.294281 314.430511,269.294281 292.695923,269.294281 
	C292.695923,287.997375 292.805298,306.304871 292.564606,324.607758 
	C292.532684,327.035919 291.306610,329.994476 289.634827,331.763550 
	C280.857361,341.051636 271.694824,349.974213 262.794861,359.148743 
	C257.247040,364.867737 251.927185,370.807922 246.238998,376.935425 
	C241.181213,371.516724 237.324783,367.175873 233.245758,363.055359 
	C222.232346,351.929840 211.029770,340.989502 200.143097,329.742554 
	C198.248535,327.785309 196.478745,324.709412 196.434418,322.119629 
	C196.126556,304.133209 196.289902,286.138733 196.301636,268.146820 
	C196.303055,265.965759 196.301834,263.784698 196.301834,261.603638 
	C195.685638,261.505157 195.069443,261.406677 194.453262,261.308167 
	C193.722137,263.923340 192.384384,266.532349 192.357880,269.154602 
	C192.180038,286.749908 192.391983,304.349182 192.204300,321.944244 
	C192.163452,325.772186 193.300659,328.518463 195.960342,331.181122 
	C206.639359,341.872223 217.158340,352.723358 227.723511,363.527985 
	C233.614471,369.552429 239.479980,375.601776 244.786896,381.054230 
	C261.210602,365.005371 276.981598,349.594299 293.263885,333.665100 
M182.457214,338.937378 
	C179.725662,333.574219 174.043930,336.772339 170.034546,334.627350 
	C170.034546,303.495514 170.034546,272.286224 170.034546,241.236496 
	C178.521469,238.946152 187.798813,243.686279 195.304886,236.917267 
	C185.569443,236.917267 175.833984,236.917267 165.538940,236.917267 
	C165.538940,271.015442 165.538940,304.887512 165.538940,339.597351 
	C173.764282,337.041382 179.071777,340.528625 184.419220,346.117249 
	C202.495132,365.008484 221.104477,383.388824 239.475937,401.998016 
	C243.065430,405.633911 246.503098,409.419678 250.988205,414.171967 
	C259.549011,405.047180 267.368866,396.712158 275.295074,388.263763 
	C276.554474,389.847931 277.250031,390.722809 278.029907,391.703796 
	C280.449860,388.069946 282.598389,384.843689 284.935455,381.334320 
	C281.505005,381.061920 278.436676,380.818268 276.446899,380.660278 
	C267.621643,390.006378 259.305267,398.813599 251.471619,407.109558 
	C244.005569,400.024567 236.903915,393.569458 230.123032,386.793396 
	C214.366867,371.048279 198.765381,355.148346 182.457214,338.937378 
M217.626785,101.151138 
	C218.684402,100.090935 219.774597,99.061066 220.794220,97.965515 
	C226.518005,91.815491 232.179504,87.021034 241.989777,87.944847 
	C254.975082,89.167656 268.162323,88.246002 281.290039,88.246002 
	C281.290039,89.763977 281.290039,90.952415 281.290039,92.837067 
	C285.186737,90.768753 288.602905,88.955482 292.462799,86.906693 
	C288.500488,84.398804 285.207520,82.314552 281.381195,79.892723 
	C281.145264,81.697906 280.992584,82.866119 280.817352,84.207047 
	C264.743988,84.207047 248.827927,84.083961 232.918076,84.343262 
	C230.601944,84.380997 227.773544,85.699295 226.104111,87.354752 
	C215.863617,97.509666 206.032028,108.079559 195.703644,118.141060 
	C193.641998,120.149422 192.926804,121.805794 192.947540,124.413803 
	C193.036255,135.564804 193.140503,146.719254 192.953506,157.867661 
	C192.821976,165.710190 195.264969,174.199875 187.004700,180.574600 
	C193.700775,180.582260 196.981369,177.478378 197.008911,171.951447 
	C197.085846,156.514511 196.994705,141.075485 197.258469,125.642204 
	C197.295044,123.500992 198.482224,120.951172 199.955704,119.339035 
	C205.497360,113.275879 211.377975,107.522507 217.626785,101.151138 
M354.002380,100.371849 
	C352.267426,99.514847 350.532471,98.657837 347.960266,97.387253 
	C349.937531,103.036621 346.092285,101.031723 344.335541,101.043289 
	C310.792786,101.264091 277.241913,101.790161 243.710922,101.206802 
	C234.985123,101.055000 232.760376,106.893341 228.870728,111.963364 
	C231.489487,111.359573 233.547729,109.870804 235.768143,108.685982 
	C237.806076,107.598549 240.014328,106.064087 242.155289,106.051567 
	C271.466522,105.880112 300.779114,105.938789 330.091370,105.940704 
	C336.074890,105.941093 342.058441,105.940765 348.279327,105.940765 
	C348.279327,107.394379 348.279327,108.564804 348.279327,110.304024 
	C352.238647,108.096024 355.707672,106.161453 359.776062,103.892632 
	C357.429871,102.525734 356.002747,101.694283 354.002380,100.371849 
M364.111389,288.632141 
	C377.367035,275.458588 390.570496,262.231842 403.912750,249.146622 
	C407.527374,245.601654 407.781494,245.589172 407.062531,242.851166 
	C403.708252,245.466309 399.019897,248.505875 395.069855,252.311676 
	C380.813019,266.047760 366.874146,280.113892 352.609222,293.841370 
	C350.944183,295.443695 348.018921,296.402740 345.640076,296.478943 
	C336.497894,296.771729 327.339508,296.648468 318.188934,296.536621 
	C315.350189,296.501892 314.012848,297.200012 315.248688,300.185883 
	C315.624603,300.296722 315.941772,300.470612 316.259766,300.472137 
	C322.582642,300.502563 328.962982,299.976990 335.216034,300.645508 
	C346.283508,301.828857 355.758636,299.800171 362.447083,290.086853 
	C362.717438,289.694244 363.203064,289.449860 364.111389,288.632141 
M120.291794,112.616814 
	C122.406738,111.417847 124.521683,110.218880 126.636635,109.019913 
	C127.064827,109.407913 127.493011,109.795914 127.921204,110.183907 
	C128.434769,107.226662 128.948349,104.269417 129.614975,100.430801 
	C125.555336,101.646271 122.511215,102.557693 119.467094,103.469109 
	C119.852188,103.794624 120.237289,104.120132 120.622383,104.445641 
	C119.944809,105.930397 119.610245,107.751297 118.536095,108.847435 
	C108.819038,118.763351 98.862640,128.447250 89.265854,138.476166 
	C87.547188,140.272217 86.350243,143.321655 86.291412,145.824814 
	C85.994301,158.465881 86.449608,171.127213 86.041389,183.762085 
	C85.795715,191.366058 85.805862,198.425659 93.219009,202.993134 
	C93.799866,203.350983 94.152069,204.079956 94.610535,204.636459 
	C95.064346,204.384171 95.518158,204.131897 95.971977,203.879623 
	C94.621773,201.366516 93.222145,198.878265 91.941093,196.330383 
	C91.243156,194.942291 90.247368,193.457062 90.235657,192.008774 
	C90.110542,176.532837 90.125496,161.055344 90.206001,145.578827 
	C90.213120,144.210785 90.535408,142.431671 91.416847,141.544342 
	C100.852448,132.045792 110.430267,122.688507 120.291794,112.616814 
M319.686920,343.195496 
	C309.766937,353.180481 299.898743,363.217957 289.884491,373.107452 
	C287.808319,375.157715 287.904694,376.449768 290.135834,378.020752 
	C292.195679,376.275269 294.209564,374.810455 295.939270,373.064209 
	C308.211639,360.674164 320.397156,348.197815 332.711700,335.850067 
	C333.726990,334.832062 335.479675,334.064545 336.911499,334.027771 
	C344.549164,333.831665 352.193726,333.884644 359.835876,333.891083 
	C368.019714,333.898010 369.726715,332.544098 372.036194,323.554077 
	C368.599060,324.361145 365.459564,325.098328 362.347076,325.829163 
	C362.468781,327.405670 362.557312,328.552460 362.654510,329.811432 
	C353.792938,329.811432 345.312225,329.711243 336.837494,329.891663 
	C335.032867,329.930115 332.838043,330.520935 331.534088,331.666565 
	C327.579468,335.141113 323.973480,339.012451 319.686920,343.195496 
M172.940369,122.753242 
	C172.691040,117.324554 171.922134,111.848503 172.410889,106.487091 
	C172.656464,103.792992 170.435547,98.894150 176.995285,98.806427 
	C174.835022,95.757843 173.073212,93.271584 170.941116,90.262749 
	C168.685928,93.165092 166.816895,95.570480 164.518311,98.528671 
	C169.621887,98.967155 169.108246,102.227699 168.939468,105.375320 
	C168.640991,110.941422 168.172699,116.512810 168.209274,122.079132 
	C168.264923,130.549515 168.822891,139.015854 168.926071,147.486847 
	C169.060547,158.526901 168.958954,169.569824 168.958954,180.531006 
	C172.899933,181.102859 173.004303,179.061234 172.993393,176.453491 
	C172.919815,158.872589 172.965103,141.291199 172.940369,122.753242 
z"/>
<path fill="#FAFAFA" opacity="1.000000" stroke="none" 
	d="
M95.053856,240.015320 
	C95.155418,256.805084 95.482651,273.598511 95.207054,290.382080 
	C95.134018,294.829987 96.551270,297.550415 99.586250,300.540588 
	C119.165382,319.830719 138.472427,339.397003 158.057175,358.681335 
	C159.805191,360.402557 162.824478,361.065491 165.383469,361.656921 
	C167.440460,362.132294 169.760223,362.097504 171.849747,361.696686 
	C180.871292,359.966064 187.090897,363.969421 192.712143,370.582214 
	C197.853622,376.630585 203.709854,382.089050 209.467102,387.581116 
	C210.587418,388.649811 212.754745,388.552246 214.335815,389.232635 
	C215.268753,389.634125 216.291351,390.347412 216.758240,391.202026 
	C217.692169,392.911469 218.271790,394.814484 218.691589,397.345825 
	C218.268951,398.304688 218.152435,398.555237 218.035919,398.805817 
	C215.283295,398.185547 212.530670,397.565277 209.433746,396.581116 
	C209.081375,395.690552 209.073303,395.163849 209.065231,394.637177 
	C208.999878,393.946808 209.206421,392.989319 208.829193,392.605377 
	C200.508636,384.137146 192.156830,375.698547 183.703064,367.363800 
	C182.774368,366.448181 181.218582,365.814758 179.903488,365.715546 
	C176.755783,365.478149 173.517105,365.239380 170.424469,365.713715 
	C162.327164,366.955811 156.733597,363.770172 151.169724,357.878784 
	C136.875549,342.743225 121.846909,328.301544 107.122307,313.572052 
	C103.382103,309.830597 100.026512,305.604736 95.882637,302.389740 
	C89.317284,297.296051 91.550255,290.289978 91.390915,284.048187 
	C91.013359,269.258514 91.344978,254.448975 91.533676,239.649307 
	C91.551872,238.222031 92.234306,236.500107 93.190514,235.440048 
	C97.480331,230.684296 103.722420,226.810944 105.917358,221.290207 
	C108.130928,215.722595 106.400940,208.587769 106.401726,202.139587 
	C106.403549,187.166962 106.287163,172.192368 106.534981,157.223801 
	C106.573715,154.884262 107.674927,151.975540 109.301773,150.344040 
	C120.062614,139.552277 131.171692,129.108643 142.003586,118.386192 
	C144.987610,115.432304 148.048065,114.048035 152.747131,115.594994 
	C152.747131,141.997208 152.747131,168.562485 152.747131,195.386749 
	C172.800095,195.386749 192.218155,195.386749 212.030914,195.386749 
	C212.030914,171.285355 212.030914,147.529739 212.030914,124.032021 
	C218.707596,124.032021 225.008041,124.326752 231.264984,123.931839 
	C235.680923,123.653130 236.878326,124.986313 236.861816,129.431503 
	C236.699127,173.251587 236.772217,217.072540 236.773132,260.893250 
	C236.773743,289.656372 236.779083,318.419556 236.730804,347.182587 
	C236.727615,349.083649 236.285995,350.984009 235.868225,354.324615 
	C227.517151,345.640625 219.838974,338.043365 212.727463,329.948303 
	C211.230652,328.244507 211.523071,324.717072 211.487839,322.023407 
	C211.305008,308.045410 211.149979,294.064453 211.239288,280.086151 
	C211.348541,262.982208 211.749496,245.880310 211.925262,228.776505 
	C211.957260,225.662262 211.514099,222.543106 211.305054,219.631805 
	C191.710876,219.631805 172.501877,219.631805 152.961914,219.631805 
	C152.961914,257.278351 152.961914,294.356476 152.961914,332.906616 
	C147.752335,328.082794 143.371826,324.148895 139.128357,320.072327 
	C129.822479,311.132538 120.543724,302.163177 111.374687,293.083923 
	C110.229378,291.949829 109.176476,290.085419 109.159615,288.547546 
	C108.995300,273.557800 109.060738,258.565491 109.060738,243.223465 
	C113.540482,244.534515 112.916687,248.151459 112.949501,251.130096 
	C113.072472,262.292145 113.132912,273.459229 112.905998,284.618164 
	C112.835098,288.105042 113.838806,290.600464 116.445633,292.823029 
	C120.141823,295.974365 123.629776,299.369904 127.754471,303.165100 
	C127.754471,247.997421 127.754471,193.540649 127.754471,137.329941 
	C121.221031,143.713623 115.700752,149.034668 110.310020,154.483856 
	C109.753517,155.046387 109.845108,156.372696 109.844841,157.344666 
	C109.839882,175.191498 109.862526,193.038315 109.890472,210.885147 
	C109.896408,214.679810 110.073807,218.480042 109.906670,222.265991 
	C109.848213,223.590393 109.340591,225.233276 108.438774,226.123795 
	C104.465446,230.047241 100.273331,233.749130 95.597176,237.774841 
	C95.040527,238.684021 95.047188,239.349670 95.053856,240.015320 
z"/>
<path fill="#FBFBFB" opacity="1.000000" stroke="none" 
	d="
M251.242157,354.182465 
	C251.416595,340.883484 251.730453,327.584595 251.741196,314.285461 
	C251.786575,258.112366 251.770920,201.939133 251.698273,145.766037 
	C251.687393,137.351135 251.232697,128.937317 251.035522,120.521774 
	C250.993607,118.732544 251.179489,116.937988 251.267944,114.978874 
	C262.037384,114.978874 272.498138,114.977203 282.958893,114.979202 
	C309.423553,114.984245 335.888184,114.996185 362.352844,114.979187 
	C363.502319,114.978447 364.656982,114.752068 365.800110,114.572571 
	C372.374573,113.540253 378.451508,113.807625 383.125000,119.657982 
	C385.472260,122.596306 388.418030,125.056519 391.055328,128.357407 
	C390.071686,129.302139 389.125854,129.622406 388.180023,129.942673 
	C387.654907,129.835144 387.129761,129.727615 386.374146,129.933731 
	C386.143646,130.247360 386.198120,130.309204 386.198120,130.309204 
	C384.582153,123.033485 375.569794,118.035789 367.809784,120.497444 
	C371.909882,123.201035 375.856049,125.632370 379.622131,128.316437 
	C394.853546,139.171692 405.373047,153.893265 408.402069,172.046082 
	C412.350220,195.707031 406.402435,217.374130 388.595642,234.745422 
	C375.326996,247.689575 359.324646,253.218552 340.950531,253.033356 
	C319.650604,252.818665 298.346832,252.983337 276.780334,252.983337 
	C276.780334,261.776825 276.756470,270.368317 276.790314,278.959595 
	C276.807495,283.315063 276.981018,287.669983 276.992767,292.025421 
	C277.022675,303.103363 277.226654,314.189240 276.842651,325.253998 
	C276.746155,328.033936 275.313110,331.299469 273.434326,333.388641 
	C267.098663,340.433990 260.285889,347.050323 252.909241,354.022278 
	C251.855942,354.203339 251.549042,354.192902 251.242157,354.182465 
M379.486755,206.881226 
	C380.139648,205.558365 380.828979,204.252090 381.439667,202.910034 
	C385.953949,192.988846 386.948181,182.381592 383.636871,172.332779 
	C376.195801,149.751343 360.101196,139.290024 336.261993,139.732498 
	C323.930359,139.961395 311.591949,139.829239 299.256592,139.849289 
	C292.008636,139.861069 284.760620,139.851440 277.346924,139.851440 
	C277.346924,169.836243 277.346924,199.307022 277.346924,228.930878 
	C299.212769,228.930878 320.515381,228.988403 341.817505,228.912292 
	C358.268036,228.853531 370.439850,221.237717 379.486755,206.881226 
z"/>
<path fill="#E6E6E6" opacity="1.000000" stroke="none" 
	d="
M293.008240,333.924194 
	C276.981598,349.594299 261.210602,365.005371 244.786896,381.054230 
	C239.479980,375.601776 233.614471,369.552429 227.723511,363.527985 
	C217.158340,352.723358 206.639359,341.872223 195.960342,331.181122 
	C193.300659,328.518463 192.163452,325.772186 192.204300,321.944244 
	C192.391983,304.349182 192.180038,286.749908 192.357880,269.154602 
	C192.384384,266.532349 193.722137,263.923340 194.453262,261.308167 
	C195.069443,261.406677 195.685638,261.505157 196.301834,261.603638 
	C196.301834,263.784698 196.303055,265.965759 196.301636,268.146820 
	C196.289902,286.138733 196.126556,304.133209 196.434418,322.119629 
	C196.478745,324.709412 198.248535,327.785309 200.143097,329.742554 
	C211.029770,340.989502 222.232346,351.929840 233.245758,363.055359 
	C237.324783,367.175873 241.181213,371.516724 246.238998,376.935425 
	C251.927185,370.807922 257.247040,364.867737 262.794861,359.148743 
	C271.694824,349.974213 280.857361,341.051636 289.634827,331.763550 
	C291.306610,329.994476 292.532684,327.035919 292.564606,324.607758 
	C292.805298,306.304871 292.695923,287.997375 292.695923,269.294281 
	C314.430511,269.294281 335.828766,269.294281 357.270599,269.294281 
	C357.695801,272.318604 357.698303,272.490936 354.649841,272.535431 
	C338.441406,272.771912 322.231720,272.919556 306.022308,273.085785 
	C303.068207,273.116089 300.113556,273.090149 296.710815,273.090149 
	C296.710815,286.355835 296.711945,299.137146 296.710205,311.918488 
	C296.709595,316.416473 297.111633,320.966370 296.550537,325.393799 
	C296.189301,328.243958 294.408447,330.914215 293.008240,333.924194 
z"/>
<path fill="#EBEBEB" opacity="1.000000" stroke="none" 
	d="
M388.222168,130.279755 
	C389.125854,129.622406 390.071686,129.302139 391.211792,128.639771 
	C402.260345,138.975327 413.142426,149.625137 423.909851,160.389664 
	C424.675262,161.154877 424.888611,162.768188 424.866577,163.978195 
	C424.693359,173.496017 424.310760,183.010391 424.176025,192.528427 
	C424.089142,198.668289 422.556091,205.272629 429.449036,209.984665 
	C424.179169,209.609421 424.341858,212.807617 424.275574,215.835938 
	C424.053833,225.967178 423.986053,236.105988 423.488922,246.223679 
	C423.383392,248.371964 422.207489,250.928619 420.688416,252.476196 
	C402.679443,270.822906 384.508423,289.010498 366.390533,307.250427 
	C364.560547,309.092712 362.633759,310.873749 361.039856,312.908752 
	C357.101654,317.936615 352.292572,320.579224 345.746124,319.317780 
	C332.462738,316.758087 322.907013,322.173340 314.337189,332.209686 
	C305.499939,342.559174 295.272064,351.730957 285.502441,361.264130 
	C284.027710,362.703186 281.736694,363.305725 279.823273,364.295166 
	C279.521515,363.798004 279.219757,363.300842 278.917999,362.803650 
	C285.695099,355.870941 292.414154,348.880280 299.264221,342.020508 
	C307.401276,333.871948 315.576050,325.756805 323.931763,317.835358 
	C325.203735,316.629486 327.528107,316.079041 329.387512,316.028595 
	C336.293671,315.841278 343.214508,316.143677 350.116547,315.894470 
	C351.684875,315.837799 353.501343,314.606506 354.693695,313.408417 
	C369.383118,298.648346 383.940369,283.756805 398.615295,268.982178 
	C404.544159,263.013062 410.830627,257.392365 416.618256,251.294128 
	C418.249084,249.575745 419.517059,246.738892 419.549011,244.395920 
	C419.903198,218.422409 420.063354,192.444916 419.999451,166.469193 
	C419.993469,164.030502 418.698944,161.020996 416.990753,159.255859 
	C407.589172,149.541214 397.872742,140.131302 388.222168,130.279755 
z"/>
<path fill="#E8E8E8" opacity="1.000000" stroke="none" 
	d="
M182.779205,339.124268 
	C198.765381,355.148346 214.366867,371.048279 230.123032,386.793396 
	C236.903915,393.569458 244.005569,400.024567 251.471619,407.109558 
	C259.305267,398.813599 267.621643,390.006378 276.446899,380.660278 
	C278.436676,380.818268 281.505005,381.061920 284.935455,381.334320 
	C282.598389,384.843689 280.449860,388.069946 278.029907,391.703796 
	C277.250031,390.722809 276.554474,389.847931 275.295074,388.263763 
	C267.368866,396.712158 259.549011,405.047180 250.988205,414.171967 
	C246.503098,409.419678 243.065430,405.633911 239.475937,401.998016 
	C221.104477,383.388824 202.495132,365.008484 184.419220,346.117249 
	C179.071777,340.528625 173.764282,337.041382 165.538940,339.597351 
	C165.538940,304.887512 165.538940,271.015442 165.538940,236.917267 
	C175.833984,236.917267 185.569443,236.917267 195.304886,236.917267 
	C187.798813,243.686279 178.521469,238.946152 170.034546,241.236496 
	C170.034546,272.286224 170.034546,303.495514 170.034546,334.627350 
	C174.043930,336.772339 179.725662,333.574219 182.779205,339.124268 
z"/>
<path fill="#EEEEEE" opacity="1.000000" stroke="none" 
	d="
M217.379211,101.402115 
	C211.377975,107.522507 205.497360,113.275879 199.955704,119.339035 
	C198.482224,120.951172 197.295044,123.500992 197.258469,125.642204 
	C196.994705,141.075485 197.085846,156.514511 197.008911,171.951447 
	C196.981369,177.478378 193.700775,180.582260 187.004700,180.574600 
	C195.264969,174.199875 192.821976,165.710190 192.953506,157.867661 
	C193.140503,146.719254 193.036255,135.564804 192.947540,124.413803 
	C192.926804,121.805794 193.641998,120.149422 195.703644,118.141060 
	C206.032028,108.079559 215.863617,97.509666 226.104111,87.354752 
	C227.773544,85.699295 230.601944,84.380997 232.918076,84.343262 
	C248.827927,84.083961 264.743988,84.207047 280.817352,84.207047 
	C280.992584,82.866119 281.145264,81.697906 281.381195,79.892723 
	C285.207520,82.314552 288.500488,84.398804 292.462799,86.906693 
	C288.602905,88.955482 285.186737,90.768753 281.290039,92.837067 
	C281.290039,90.952415 281.290039,89.763977 281.290039,88.246002 
	C268.162323,88.246002 254.975082,89.167656 241.989777,87.944847 
	C232.179504,87.021034 226.518005,91.815491 220.794220,97.965515 
	C219.774597,99.061066 218.684402,100.090935 217.379211,101.402115 
z"/>
<path fill="#E6E6E6" opacity="1.000000" stroke="none" 
	d="
M354.289001,100.617340 
	C356.002747,101.694283 357.429871,102.525734 359.776062,103.892632 
	C355.707672,106.161453 352.238647,108.096024 348.279327,110.304024 
	C348.279327,108.564804 348.279327,107.394379 348.279327,105.940765 
	C342.058441,105.940765 336.074890,105.941093 330.091370,105.940704 
	C300.779114,105.938789 271.466522,105.880112 242.155289,106.051567 
	C240.014328,106.064087 237.806076,107.598549 235.768143,108.685982 
	C233.547729,109.870804 231.489487,111.359573 228.870728,111.963364 
	C232.760376,106.893341 234.985123,101.055000 243.710922,101.206802 
	C277.241913,101.790161 310.792786,101.264091 344.335541,101.043289 
	C346.092285,101.031723 349.937531,103.036621 347.960266,97.387253 
	C350.532471,98.657837 352.267426,99.514847 354.289001,100.617340 
z"/>
<path fill="#EEEEEE" opacity="1.000000" stroke="none" 
	d="
M363.849915,288.884277 
	C363.203064,289.449860 362.717438,289.694244 362.447083,290.086853 
	C355.758636,299.800171 346.283508,301.828857 335.216034,300.645508 
	C328.962982,299.976990 322.582642,300.502563 316.259766,300.472137 
	C315.941772,300.470612 315.624603,300.296722 315.248688,300.185883 
	C314.012848,297.200012 315.350189,296.501892 318.188934,296.536621 
	C327.339508,296.648468 336.497894,296.771729 345.640076,296.478943 
	C348.018921,296.402740 350.944183,295.443695 352.609222,293.841370 
	C366.874146,280.113892 380.813019,266.047760 395.069855,252.311676 
	C399.019897,248.505875 403.708252,245.466309 407.062531,242.851166 
	C407.781494,245.589172 407.527374,245.601654 403.912750,249.146622 
	C390.570496,262.231842 377.367035,275.458588 363.849915,288.884277 
z"/>
<path fill="#ECECEC" opacity="1.000000" stroke="none" 
	d="
M120.130440,112.954651 
	C110.430267,122.688507 100.852448,132.045792 91.416847,141.544342 
	C90.535408,142.431671 90.213120,144.210785 90.206001,145.578827 
	C90.125496,161.055344 90.110542,176.532837 90.235657,192.008774 
	C90.247368,193.457062 91.243156,194.942291 91.941093,196.330383 
	C93.222145,198.878265 94.621773,201.366516 95.971977,203.879623 
	C95.518158,204.131897 95.064346,204.384171 94.610535,204.636459 
	C94.152069,204.079956 93.799866,203.350983 93.219009,202.993134 
	C85.805862,198.425659 85.795715,191.366058 86.041389,183.762085 
	C86.449608,171.127213 85.994301,158.465881 86.291412,145.824814 
	C86.350243,143.321655 87.547188,140.272217 89.265854,138.476166 
	C98.862640,128.447250 108.819038,118.763351 118.536095,108.847435 
	C119.610245,107.751297 119.944809,105.930397 120.622383,104.445641 
	C120.237289,104.120132 119.852188,103.794624 119.467094,103.469109 
	C122.511215,102.557693 125.555336,101.646271 129.614975,100.430801 
	C128.948349,104.269417 128.434769,107.226662 127.921204,110.183907 
	C127.493011,109.795914 127.064827,109.407913 126.636635,109.019913 
	C124.521683,110.218880 122.406738,111.417847 120.130440,112.954651 
z"/>
<path fill="#EEEEEE" opacity="1.000000" stroke="none" 
	d="
M319.959320,342.962372 
	C323.973480,339.012451 327.579468,335.141113 331.534088,331.666565 
	C332.838043,330.520935 335.032867,329.930115 336.837494,329.891663 
	C345.312225,329.711243 353.792938,329.811432 362.654510,329.811432 
	C362.557312,328.552460 362.468781,327.405670 362.347076,325.829163 
	C365.459564,325.098328 368.599060,324.361145 372.036194,323.554077 
	C369.726715,332.544098 368.019714,333.898010 359.835876,333.891083 
	C352.193726,333.884644 344.549164,333.831665 336.911499,334.027771 
	C335.479675,334.064545 333.726990,334.832062 332.711700,335.850067 
	C320.397156,348.197815 308.211639,360.674164 295.939270,373.064209 
	C294.209564,374.810455 292.195679,376.275269 290.135834,378.020752 
	C287.904694,376.449768 287.808319,375.157715 289.884491,373.107452 
	C299.898743,363.217957 309.766937,353.180481 319.959320,342.962372 
z"/>
<path fill="#EFEFEF" opacity="1.000000" stroke="none" 
	d="
M172.956146,123.231598 
	C172.965103,141.291199 172.919815,158.872589 172.993393,176.453491 
	C173.004303,179.061234 172.899933,181.102859 168.958954,180.531006 
	C168.958954,169.569824 169.060547,158.526901 168.926071,147.486847 
	C168.822891,139.015854 168.264923,130.549515 168.209274,122.079132 
	C168.172699,116.512810 168.640991,110.941422 168.939468,105.375320 
	C169.108246,102.227699 169.621887,98.967155 164.518311,98.528671 
	C166.816895,95.570480 168.685928,93.165092 170.941116,90.262749 
	C173.073212,93.271584 174.835022,95.757843 176.995285,98.806427 
	C170.435547,98.894150 172.656464,103.792992 172.410889,106.487091 
	C171.922134,111.848503 172.691040,117.324554 172.956146,123.231598 
z"/>
<path fill="#E2E2E2" opacity="1.000000" stroke="none" 
	d="
M208.815628,394.746277 
	C209.073303,395.163849 209.081375,395.690552 209.060059,396.479675 
	C208.492264,396.594238 207.953842,396.446411 207.415436,396.298584 
	C207.798965,395.817505 208.182495,395.336426 208.815628,394.746277 
z"/>
<path fill="#E2E2E2" opacity="1.000000" stroke="none" 
	d="
M95.164986,239.766907 
	C95.047188,239.349670 95.040527,238.684021 95.303925,237.984726 
	C95.474693,238.473557 95.375404,238.996033 95.164986,239.766907 
z"/>
<path fill="#E2E2E2" opacity="1.000000" stroke="none" 
	d="
M218.193970,398.958557 
	C218.152435,398.555237 218.268951,398.304688 218.648407,397.733704 
	C219.149719,397.906433 219.388092,398.399567 219.626480,398.892700 
	C219.201660,398.965576 218.776825,399.038422 218.193970,398.958557 
z"/>
<path fill="#5B5B5B" opacity="1.000000" stroke="none" 
	d="
M251.142578,354.434570 
	C251.549042,354.192902 251.855942,354.203339 252.623444,354.208771 
	C252.403702,354.364716 251.723343,354.525665 251.142578,354.434570 
z"/>
<path fill="#EBEBEB" opacity="1.000000" stroke="none" 
	d="
M386.031128,130.177643 
	C386.198120,130.309204 386.143646,130.247360 386.132690,130.287598 
	C386.035919,130.233917 385.950043,130.139984 386.031128,130.177643 
z"/>
<path fill="#040404" opacity="1.000000" stroke="none" 
	d="
M379.231873,207.149475 
	C370.439850,221.237717 358.268036,228.853531 341.817505,228.912292 
	C320.515381,228.988403 299.212769,228.930878 277.346924,228.930878 
	C277.346924,199.307022 277.346924,169.836243 277.346924,139.851440 
	C284.760620,139.851440 292.008636,139.861069 299.256592,139.849289 
	C311.591949,139.829239 323.930359,139.961395 336.261993,139.732498 
	C360.101196,139.290024 376.195801,149.751343 383.636871,172.332779 
	C386.948181,182.381592 385.953949,192.988846 381.439667,202.910034 
	C380.828979,204.252090 380.139648,205.558365 379.231873,207.149475 
M291.717194,160.096405 
	C291.717194,179.358994 291.717194,198.621582 291.717194,218.472244 
	C294.227417,218.472244 296.023468,218.469635 297.819519,218.472672 
	C310.588562,218.494263 323.358276,218.606949 336.126495,218.515198 
	C350.108521,218.414703 361.372437,213.435776 368.688049,200.743759 
	C381.698608,178.171417 364.670349,153.163879 344.848541,151.582581 
	C327.390594,150.189865 309.733734,151.291290 291.466187,151.291290 
	C291.619598,154.291275 291.748535,156.812180 291.717194,160.096405 
z"/>
<path fill="#E9E9E9" opacity="1.000000" stroke="none" 
	d="
M291.797302,159.714752 
	C291.748535,156.812180 291.619598,154.291275 291.466187,151.291290 
	C309.733734,151.291290 327.390594,150.189865 344.848541,151.582581 
	C364.670349,153.163879 381.698608,178.171417 368.688049,200.743759 
	C361.372437,213.435776 350.108521,218.414703 336.126495,218.515198 
	C323.358276,218.606949 310.588562,218.494263 297.819519,218.472672 
	C296.023468,218.469635 294.227417,218.472244 291.717194,218.472244 
	C291.717194,198.621582 291.717194,179.358994 291.797302,159.714752 
M322.499695,214.513138 
	C329.462494,214.304504 336.515350,214.731873 343.370331,213.761612 
	C360.303650,211.364853 371.100861,197.440567 368.683624,180.112717 
	C366.808472,166.670929 356.686859,154.959015 338.682831,154.797028 
	C331.364777,154.731186 324.045685,154.783691 316.727051,154.783127 
	C309.579834,154.782578 302.432617,154.783005 295.669586,154.783005 
	C295.669586,175.420807 295.669586,194.768814 295.669586,214.513596 
	C304.588531,214.513596 313.044098,214.513596 322.499695,214.513138 
z"/>
<path fill="#030303" opacity="1.000000" stroke="none" 
	d="
M321.999695,214.513367 
	C313.044098,214.513596 304.588531,214.513596 295.669586,214.513596 
	C295.669586,194.768814 295.669586,175.420807 295.669586,154.783005 
	C302.432617,154.783005 309.579834,154.782578 316.727051,154.783127 
	C324.045685,154.783691 331.364777,154.731186 338.682831,154.797028 
	C356.686859,154.959015 366.808472,166.670929 368.683624,180.112717 
	C371.100861,197.440567 360.303650,211.364853 343.370331,213.761612 
	C336.515350,214.731873 329.462494,214.304504 321.999695,214.513367 
z"/>
</svg>